<mxfile host="65bd71144e">
    <diagram id="jf1vxzQMCLB04THNJ0P5" name="Page-1">
        <mxGraphModel dx="3128" dy="2113" grid="1" gridSize="10" guides="1" tooltips="1" connect="1" arrows="1" fold="1" page="0" pageScale="1" pageWidth="850" pageHeight="1100" math="0" shadow="0">
            <root>
                <mxCell id="0"/>
                <mxCell id="1" parent="0"/>
                <mxCell id="19" style="edgeStyle=none;curved=1;html=1;exitX=0;exitY=0.25;exitDx=0;exitDy=0;entryX=1;entryY=0.5;entryDx=0;entryDy=0;" edge="1" parent="1" source="4" target="12">
                    <mxGeometry relative="1" as="geometry"/>
                </mxCell>
                <mxCell id="20" style="edgeStyle=none;curved=1;html=1;exitX=0.25;exitY=0;exitDx=0;exitDy=0;entryX=1;entryY=1;entryDx=0;entryDy=0;" edge="1" parent="1" source="4" target="14">
                    <mxGeometry relative="1" as="geometry"/>
                </mxCell>
                <mxCell id="21" style="edgeStyle=none;curved=1;html=1;exitX=0.25;exitY=1;exitDx=0;exitDy=0;startSize=6;strokeWidth=2;" edge="1" parent="1" source="4" target="13">
                    <mxGeometry relative="1" as="geometry"/>
                </mxCell>
                <mxCell id="22" style="edgeStyle=none;curved=1;html=1;exitX=0.5;exitY=1;exitDx=0;exitDy=0;" edge="1" parent="1" source="4" target="15">
                    <mxGeometry relative="1" as="geometry"/>
                </mxCell>
                <mxCell id="30" style="edgeStyle=none;html=1;strokeWidth=2;startSize=6;curved=1;" edge="1" parent="1" source="4" target="29">
                    <mxGeometry relative="1" as="geometry"/>
                </mxCell>
                <mxCell id="33" style="edgeStyle=none;curved=1;html=1;exitX=0;exitY=0.5;exitDx=0;exitDy=0;entryX=1;entryY=0.5;entryDx=0;entryDy=0;strokeWidth=2;startSize=6;" edge="1" parent="1" source="4" target="32">
                    <mxGeometry relative="1" as="geometry"/>
                </mxCell>
                <mxCell id="35" style="edgeStyle=none;curved=1;html=1;exitX=0.75;exitY=1;exitDx=0;exitDy=0;entryX=1;entryY=0;entryDx=0;entryDy=0;strokeWidth=1;startSize=6;" edge="1" parent="1" source="4" target="34">
                    <mxGeometry relative="1" as="geometry"/>
                </mxCell>
                <mxCell id="36" style="edgeStyle=none;curved=1;html=1;exitX=0.5;exitY=0;exitDx=0;exitDy=0;strokeWidth=2;startSize=6;" edge="1" parent="1" source="4" target="11">
                    <mxGeometry relative="1" as="geometry"/>
                </mxCell>
                <mxCell id="43" style="edgeStyle=none;curved=1;html=1;exitX=0.75;exitY=0;exitDx=0;exitDy=0;strokeWidth=1;startSize=6;" edge="1" parent="1" source="4" target="42">
                    <mxGeometry relative="1" as="geometry"/>
                </mxCell>
                <mxCell id="56" style="edgeStyle=none;curved=1;html=1;exitX=1;exitY=1;exitDx=0;exitDy=0;strokeWidth=2;startSize=6;" edge="1" parent="1" source="4" target="55">
                    <mxGeometry relative="1" as="geometry"/>
                </mxCell>
                <mxCell id="4" value="" style="rounded=1;whiteSpace=wrap;html=1;shadow=1;" vertex="1" parent="1">
                    <mxGeometry x="-820" y="-340" width="120" height="60" as="geometry"/>
                </mxCell>
                <mxCell id="40" style="edgeStyle=none;curved=1;html=1;exitX=0.5;exitY=0;exitDx=0;exitDy=0;entryX=1;entryY=1;entryDx=0;entryDy=0;strokeWidth=1;startSize=6;" edge="1" parent="1" source="5" target="39">
                    <mxGeometry relative="1" as="geometry"/>
                </mxCell>
                <mxCell id="53" style="edgeStyle=none;curved=1;html=1;exitX=1;exitY=0;exitDx=0;exitDy=0;strokeWidth=2;startSize=6;" edge="1" parent="1" source="5" target="37">
                    <mxGeometry relative="1" as="geometry"/>
                </mxCell>
                <mxCell id="54" style="edgeStyle=none;curved=1;html=1;exitX=1;exitY=0.75;exitDx=0;exitDy=0;entryX=0;entryY=0.5;entryDx=0;entryDy=0;strokeWidth=1;startSize=6;" edge="1" parent="1" source="5" target="38">
                    <mxGeometry relative="1" as="geometry"/>
                </mxCell>
                <mxCell id="5" value="Organization" style="rounded=1;whiteSpace=wrap;html=1;shadow=1;" vertex="1" parent="1">
                    <mxGeometry x="-170" y="-340" width="120" height="60" as="geometry"/>
                </mxCell>
                <mxCell id="98" style="edgeStyle=none;curved=1;html=1;exitX=0;exitY=0.5;exitDx=0;exitDy=0;entryX=1;entryY=1;entryDx=0;entryDy=0;strokeWidth=2;startSize=6;" edge="1" parent="1" source="7" target="97">
                    <mxGeometry relative="1" as="geometry"/>
                </mxCell>
                <mxCell id="104" style="edgeStyle=none;curved=1;html=1;exitX=0.25;exitY=1;exitDx=0;exitDy=0;entryX=0.5;entryY=0;entryDx=0;entryDy=0;strokeWidth=2;startSize=6;" edge="1" parent="1" source="7" target="100">
                    <mxGeometry relative="1" as="geometry"/>
                </mxCell>
                <mxCell id="105" style="edgeStyle=none;curved=1;html=1;exitX=0.75;exitY=1;exitDx=0;exitDy=0;entryX=0;entryY=0;entryDx=0;entryDy=0;strokeWidth=2;startSize=6;" edge="1" parent="1" source="7" target="103">
                    <mxGeometry relative="1" as="geometry"/>
                </mxCell>
                <mxCell id="106" style="edgeStyle=none;curved=1;html=1;exitX=1;exitY=0.75;exitDx=0;exitDy=0;entryX=0;entryY=0;entryDx=0;entryDy=0;strokeWidth=2;startSize=6;" edge="1" parent="1" source="7" target="101">
                    <mxGeometry relative="1" as="geometry"/>
                </mxCell>
                <mxCell id="108" style="edgeStyle=none;curved=1;html=1;exitX=1;exitY=0.5;exitDx=0;exitDy=0;entryX=0;entryY=0.5;entryDx=0;entryDy=0;strokeWidth=2;startSize=6;" edge="1" parent="1" source="7" target="107">
                    <mxGeometry relative="1" as="geometry"/>
                </mxCell>
                <mxCell id="7" value="timekeeping&lt;br&gt;" style="rounded=1;whiteSpace=wrap;html=1;shadow=1;" vertex="1" parent="1">
                    <mxGeometry x="-140" y="-80" width="120" height="60" as="geometry"/>
                </mxCell>
                <mxCell id="63" style="edgeStyle=none;curved=1;html=1;exitX=1;exitY=1;exitDx=0;exitDy=0;strokeWidth=2;startSize=6;" edge="1" parent="1" source="8" target="60">
                    <mxGeometry relative="1" as="geometry"/>
                </mxCell>
                <mxCell id="67" style="edgeStyle=none;curved=1;html=1;exitX=0;exitY=1;exitDx=0;exitDy=0;entryX=0.5;entryY=0;entryDx=0;entryDy=0;strokeWidth=2;startSize=6;" edge="1" parent="1" source="8" target="58">
                    <mxGeometry relative="1" as="geometry"/>
                </mxCell>
                <mxCell id="68" style="edgeStyle=none;curved=1;html=1;exitX=0.25;exitY=1;exitDx=0;exitDy=0;entryX=0.5;entryY=0;entryDx=0;entryDy=0;strokeWidth=2;startSize=6;" edge="1" parent="1" source="8" target="64">
                    <mxGeometry relative="1" as="geometry"/>
                </mxCell>
                <mxCell id="69" style="edgeStyle=none;curved=1;html=1;exitX=0.5;exitY=1;exitDx=0;exitDy=0;entryX=0.5;entryY=0;entryDx=0;entryDy=0;strokeWidth=2;startSize=6;" edge="1" parent="1" source="8" target="59">
                    <mxGeometry relative="1" as="geometry"/>
                </mxCell>
                <mxCell id="70" style="edgeStyle=none;curved=1;html=1;exitX=0.75;exitY=1;exitDx=0;exitDy=0;entryX=0.5;entryY=0;entryDx=0;entryDy=0;strokeWidth=2;startSize=6;" edge="1" parent="1" source="8" target="66">
                    <mxGeometry relative="1" as="geometry"/>
                </mxCell>
                <mxCell id="72" style="edgeStyle=none;curved=1;html=1;exitX=0;exitY=0.5;exitDx=0;exitDy=0;entryX=1;entryY=0.5;entryDx=0;entryDy=0;strokeWidth=2;startSize=6;" edge="1" parent="1" source="8" target="71">
                    <mxGeometry relative="1" as="geometry"/>
                </mxCell>
                <mxCell id="8" value="salary&lt;br&gt;" style="rounded=1;whiteSpace=wrap;html=1;shadow=1;" vertex="1" parent="1">
                    <mxGeometry x="-490" y="20" width="120" height="60" as="geometry"/>
                </mxCell>
                <mxCell id="74" style="edgeStyle=none;curved=1;html=1;exitX=0.5;exitY=1;exitDx=0;exitDy=0;entryX=0.5;entryY=0;entryDx=0;entryDy=0;strokeWidth=2;startSize=6;" edge="1" parent="1" source="9" target="73">
                    <mxGeometry relative="1" as="geometry"/>
                </mxCell>
                <mxCell id="82" style="edgeStyle=none;curved=1;html=1;exitX=0.5;exitY=0;exitDx=0;exitDy=0;entryX=0.5;entryY=1;entryDx=0;entryDy=0;strokeWidth=2;startSize=6;" edge="1" parent="1" source="9" target="81">
                    <mxGeometry relative="1" as="geometry"/>
                </mxCell>
                <mxCell id="84" value="" style="edgeStyle=none;curved=1;html=1;strokeWidth=2;startSize=6;" edge="1" parent="1" source="9" target="83">
                    <mxGeometry relative="1" as="geometry"/>
                </mxCell>
                <mxCell id="91" style="edgeStyle=none;curved=1;html=1;exitX=0;exitY=0.5;exitDx=0;exitDy=0;strokeWidth=2;startSize=6;" edge="1" parent="1" source="9" target="90">
                    <mxGeometry relative="1" as="geometry"/>
                </mxCell>
                <mxCell id="9" value="role&lt;br&gt;" style="rounded=1;whiteSpace=wrap;html=1;shadow=1;" vertex="1" parent="1">
                    <mxGeometry x="-860" y="-720" width="120" height="60" as="geometry"/>
                </mxCell>
                <mxCell id="10" value="Employees" style="text;strokeColor=none;align=center;fillColor=none;html=1;verticalAlign=middle;whiteSpace=wrap;rounded=0;shadow=1;" vertex="1" parent="1">
                    <mxGeometry x="-790" y="-325" width="60" height="30" as="geometry"/>
                </mxCell>
                <mxCell id="11" value="firstname&lt;br&gt;" style="ellipse;whiteSpace=wrap;html=1;shadow=1;" vertex="1" parent="1">
                    <mxGeometry x="-1190" y="-620" width="120" height="80" as="geometry"/>
                </mxCell>
                <mxCell id="12" value="lastname" style="ellipse;whiteSpace=wrap;html=1;shadow=1;" vertex="1" parent="1">
                    <mxGeometry x="-1250" y="-440" width="120" height="80" as="geometry"/>
                </mxCell>
                <mxCell id="13" value="&lt;u&gt;email&lt;/u&gt;" style="ellipse;whiteSpace=wrap;html=1;shadow=1;" vertex="1" parent="1">
                    <mxGeometry x="-1230" y="-240" width="120" height="80" as="geometry"/>
                </mxCell>
                <mxCell id="14" value="gender&lt;br&gt;" style="ellipse;whiteSpace=wrap;html=1;shadow=1;" vertex="1" parent="1">
                    <mxGeometry x="-1250" y="-540" width="120" height="80" as="geometry"/>
                </mxCell>
                <mxCell id="15" value="gender&lt;br&gt;" style="ellipse;whiteSpace=wrap;html=1;shadow=1;" vertex="1" parent="1">
                    <mxGeometry x="-1210" y="-140" width="120" height="80" as="geometry"/>
                </mxCell>
                <mxCell id="31" style="edgeStyle=none;curved=1;html=1;exitX=1;exitY=0.5;exitDx=0;exitDy=0;entryX=0;entryY=0.5;entryDx=0;entryDy=0;strokeWidth=2;startSize=6;" edge="1" parent="1" source="29" target="5">
                    <mxGeometry relative="1" as="geometry"/>
                </mxCell>
                <mxCell id="29" value="belongs to" style="rhombus;whiteSpace=wrap;html=1;shadow=1;" vertex="1" parent="1">
                    <mxGeometry x="-460" y="-350" width="80" height="80" as="geometry"/>
                </mxCell>
                <mxCell id="32" value="organization_id" style="ellipse;whiteSpace=wrap;html=1;shadow=1;" vertex="1" parent="1">
                    <mxGeometry x="-1250" y="-350" width="120" height="80" as="geometry"/>
                </mxCell>
                <mxCell id="34" value="role_id" style="ellipse;whiteSpace=wrap;html=1;shadow=1;" vertex="1" parent="1">
                    <mxGeometry x="-1200" y="-30" width="120" height="80" as="geometry"/>
                </mxCell>
                <mxCell id="37" value="title&lt;br&gt;" style="ellipse;whiteSpace=wrap;html=1;shadow=1;" vertex="1" parent="1">
                    <mxGeometry x="100" y="-510" width="120" height="80" as="geometry"/>
                </mxCell>
                <mxCell id="38" value="description" style="ellipse;whiteSpace=wrap;html=1;shadow=1;" vertex="1" parent="1">
                    <mxGeometry x="100" y="-290" width="120" height="80" as="geometry"/>
                </mxCell>
                <mxCell id="45" style="edgeStyle=none;curved=1;html=1;exitX=0;exitY=0;exitDx=0;exitDy=0;entryX=1;entryY=1;entryDx=0;entryDy=0;strokeWidth=1;startSize=6;" edge="1" parent="1" source="39" target="41">
                    <mxGeometry relative="1" as="geometry"/>
                </mxCell>
                <mxCell id="39" value="has" style="rhombus;whiteSpace=wrap;html=1;shadow=1;" vertex="1" parent="1">
                    <mxGeometry x="-300" y="-520" width="80" height="80" as="geometry"/>
                </mxCell>
                <mxCell id="50" style="edgeStyle=none;curved=1;html=1;exitX=1;exitY=0.5;exitDx=0;exitDy=0;entryX=0;entryY=0.5;entryDx=0;entryDy=0;strokeWidth=2;startSize=6;" edge="1" parent="1" source="41" target="48">
                    <mxGeometry relative="1" as="geometry"/>
                </mxCell>
                <mxCell id="51" style="edgeStyle=none;curved=1;html=1;exitX=0.75;exitY=0;exitDx=0;exitDy=0;strokeWidth=1;startSize=6;" edge="1" parent="1" source="41" target="47">
                    <mxGeometry relative="1" as="geometry"/>
                </mxCell>
                <mxCell id="52" style="edgeStyle=none;curved=1;html=1;exitX=0.25;exitY=0;exitDx=0;exitDy=0;entryX=0.587;entryY=1;entryDx=0;entryDy=0;entryPerimeter=0;strokeWidth=1;startSize=6;" edge="1" parent="1" source="41" target="46">
                    <mxGeometry relative="1" as="geometry"/>
                </mxCell>
                <mxCell id="41" value="departments&lt;br&gt;" style="rounded=1;whiteSpace=wrap;html=1;shadow=1;" vertex="1" parent="1">
                    <mxGeometry x="-530" y="-700" width="120" height="60" as="geometry"/>
                </mxCell>
                <mxCell id="44" style="edgeStyle=none;curved=1;html=1;exitX=1;exitY=0;exitDx=0;exitDy=0;entryX=0;entryY=0.5;entryDx=0;entryDy=0;strokeWidth=1;startSize=6;" edge="1" parent="1" source="42" target="41">
                    <mxGeometry relative="1" as="geometry"/>
                </mxCell>
                <mxCell id="42" value="belongs to" style="rhombus;whiteSpace=wrap;html=1;shadow=1;" vertex="1" parent="1">
                    <mxGeometry x="-690" y="-560" width="80" height="80" as="geometry"/>
                </mxCell>
                <mxCell id="46" value="title" style="ellipse;whiteSpace=wrap;html=1;shadow=1;" vertex="1" parent="1">
                    <mxGeometry x="-670" y="-920" width="120" height="80" as="geometry"/>
                </mxCell>
                <mxCell id="47" value="description&lt;br&gt;" style="ellipse;whiteSpace=wrap;html=1;shadow=1;" vertex="1" parent="1">
                    <mxGeometry x="-390" y="-910" width="120" height="80" as="geometry"/>
                </mxCell>
                <mxCell id="48" value="organization_id" style="ellipse;whiteSpace=wrap;html=1;shadow=1;" vertex="1" parent="1">
                    <mxGeometry x="-290" y="-770" width="120" height="80" as="geometry"/>
                </mxCell>
                <mxCell id="57" style="edgeStyle=none;curved=1;html=1;exitX=1;exitY=1;exitDx=0;exitDy=0;strokeWidth=2;startSize=6;" edge="1" parent="1" source="55" target="8">
                    <mxGeometry relative="1" as="geometry"/>
                </mxCell>
                <mxCell id="55" value="belongs to" style="rhombus;whiteSpace=wrap;html=1;shadow=1;" vertex="1" parent="1">
                    <mxGeometry x="-680" y="-160" width="80" height="80" as="geometry"/>
                </mxCell>
                <mxCell id="58" value="employee_id&lt;br&gt;" style="ellipse;whiteSpace=wrap;html=1;shadow=1;" vertex="1" parent="1">
                    <mxGeometry x="-700" y="230" width="120" height="80" as="geometry"/>
                </mxCell>
                <mxCell id="59" value="organization_id&lt;br&gt;" style="ellipse;whiteSpace=wrap;html=1;shadow=1;" vertex="1" parent="1">
                    <mxGeometry x="-480" y="240" width="120" height="80" as="geometry"/>
                </mxCell>
                <mxCell id="60" value="department_id" style="ellipse;whiteSpace=wrap;html=1;shadow=1;" vertex="1" parent="1">
                    <mxGeometry x="-180" y="220" width="120" height="80" as="geometry"/>
                </mxCell>
                <mxCell id="64" value="from_date&lt;br&gt;" style="ellipse;whiteSpace=wrap;html=1;shadow=1;" vertex="1" parent="1">
                    <mxGeometry x="-630" y="430" width="120" height="80" as="geometry"/>
                </mxCell>
                <mxCell id="66" value="to_date&lt;br&gt;" style="ellipse;whiteSpace=wrap;html=1;shadow=1;" vertex="1" parent="1">
                    <mxGeometry x="-250" y="420" width="120" height="80" as="geometry"/>
                </mxCell>
                <mxCell id="71" value="amount" style="ellipse;whiteSpace=wrap;html=1;shadow=1;" vertex="1" parent="1">
                    <mxGeometry x="-840" y="70" width="120" height="80" as="geometry"/>
                </mxCell>
                <mxCell id="76" style="edgeStyle=none;curved=1;html=1;exitX=0.5;exitY=1;exitDx=0;exitDy=0;entryX=0.5;entryY=0;entryDx=0;entryDy=0;strokeWidth=2;startSize=6;" edge="1" parent="1" source="73" target="4">
                    <mxGeometry relative="1" as="geometry"/>
                </mxCell>
                <mxCell id="73" value="belongs to" style="rhombus;whiteSpace=wrap;html=1;shadow=1;" vertex="1" parent="1">
                    <mxGeometry x="-840" y="-570" width="80" height="80" as="geometry"/>
                </mxCell>
                <mxCell id="87" style="edgeStyle=none;curved=1;html=1;exitX=0.5;exitY=0;exitDx=0;exitDy=0;entryX=0.5;entryY=1;entryDx=0;entryDy=0;strokeWidth=2;startSize=6;" edge="1" parent="1" source="77" target="86">
                    <mxGeometry relative="1" as="geometry"/>
                </mxCell>
                <mxCell id="88" style="edgeStyle=none;curved=1;html=1;exitX=0.5;exitY=1;exitDx=0;exitDy=0;entryX=0.5;entryY=0;entryDx=0;entryDy=0;strokeWidth=2;startSize=6;" edge="1" parent="1" source="77" target="85">
                    <mxGeometry relative="1" as="geometry"/>
                </mxCell>
                <mxCell id="92" style="edgeStyle=none;curved=1;html=1;exitX=1;exitY=0.25;exitDx=0;exitDy=0;entryX=0;entryY=1;entryDx=0;entryDy=0;strokeWidth=2;startSize=6;" edge="1" parent="1" source="77" target="90">
                    <mxGeometry relative="1" as="geometry"/>
                </mxCell>
                <mxCell id="77" value="permission&lt;br&gt;" style="rounded=1;whiteSpace=wrap;html=1;shadow=1;" vertex="1" parent="1">
                    <mxGeometry x="-1470" y="-740" width="120" height="60" as="geometry"/>
                </mxCell>
                <mxCell id="81" value="titile&lt;br&gt;" style="ellipse;whiteSpace=wrap;html=1;shadow=1;" vertex="1" parent="1">
                    <mxGeometry x="-860" y="-910" width="120" height="80" as="geometry"/>
                </mxCell>
                <mxCell id="83" value="description" style="ellipse;whiteSpace=wrap;html=1;shadow=1;" vertex="1" parent="1">
                    <mxGeometry x="-1050" y="-870" width="120" height="80" as="geometry"/>
                </mxCell>
                <mxCell id="85" value="title&lt;br&gt;" style="ellipse;whiteSpace=wrap;html=1;shadow=1;" vertex="1" parent="1">
                    <mxGeometry x="-1470" y="-600" width="120" height="80" as="geometry"/>
                </mxCell>
                <mxCell id="86" value="description&lt;br&gt;" style="ellipse;whiteSpace=wrap;html=1;shadow=1;" vertex="1" parent="1">
                    <mxGeometry x="-1450" y="-930" width="120" height="80" as="geometry"/>
                </mxCell>
                <mxCell id="95" style="edgeStyle=none;curved=1;html=1;exitX=0.75;exitY=0;exitDx=0;exitDy=0;entryX=0.5;entryY=1;entryDx=0;entryDy=0;strokeWidth=2;startSize=6;" edge="1" parent="1" source="90" target="94">
                    <mxGeometry relative="1" as="geometry"/>
                </mxCell>
                <mxCell id="96" style="edgeStyle=none;curved=1;html=1;exitX=0.25;exitY=0;exitDx=0;exitDy=0;entryX=0.5;entryY=1;entryDx=0;entryDy=0;strokeWidth=2;startSize=6;" edge="1" parent="1" source="90" target="93">
                    <mxGeometry relative="1" as="geometry"/>
                </mxCell>
                <mxCell id="90" value="role_perssion" style="rounded=1;whiteSpace=wrap;html=1;shadow=1;" vertex="1" parent="1">
                    <mxGeometry x="-1260" y="-880" width="120" height="60" as="geometry"/>
                </mxCell>
                <mxCell id="93" value="permission_id" style="ellipse;whiteSpace=wrap;html=1;shadow=1;" vertex="1" parent="1">
                    <mxGeometry x="-1320" y="-1140" width="120" height="80" as="geometry"/>
                </mxCell>
                <mxCell id="94" value="role_id" style="ellipse;whiteSpace=wrap;html=1;shadow=1;" vertex="1" parent="1">
                    <mxGeometry x="-1150" y="-1140" width="120" height="80" as="geometry"/>
                </mxCell>
                <mxCell id="99" style="edgeStyle=none;curved=1;html=1;exitX=0;exitY=0;exitDx=0;exitDy=0;entryX=1;entryY=0.75;entryDx=0;entryDy=0;strokeWidth=2;startSize=6;" edge="1" parent="1" source="97" target="4">
                    <mxGeometry relative="1" as="geometry"/>
                </mxCell>
                <mxCell id="97" value="belongs to" style="rhombus;whiteSpace=wrap;html=1;shadow=1;" vertex="1" parent="1">
                    <mxGeometry x="-410" y="-190" width="80" height="80" as="geometry"/>
                </mxCell>
                <mxCell id="100" value="employee_id" style="ellipse;whiteSpace=wrap;html=1;shadow=1;" vertex="1" parent="1">
                    <mxGeometry x="-130" y="60" width="120" height="80" as="geometry"/>
                </mxCell>
                <mxCell id="101" value="organization_id&lt;br&gt;" style="ellipse;whiteSpace=wrap;html=1;shadow=1;" vertex="1" parent="1">
                    <mxGeometry x="110" y="30" width="120" height="80" as="geometry"/>
                </mxCell>
                <mxCell id="102" value="department_id" style="ellipse;whiteSpace=wrap;html=1;shadow=1;" vertex="1" parent="1">
                    <mxGeometry x="140" y="-150" width="120" height="80" as="geometry"/>
                </mxCell>
                <mxCell id="103" value="time_in&lt;br&gt;" style="ellipse;whiteSpace=wrap;html=1;shadow=1;" vertex="1" parent="1">
                    <mxGeometry x="130" y="290" width="120" height="80" as="geometry"/>
                </mxCell>
                <mxCell id="107" value="time_out&lt;br&gt;" style="ellipse;whiteSpace=wrap;html=1;shadow=1;" vertex="1" parent="1">
                    <mxGeometry x="390" y="-50" width="120" height="80" as="geometry"/>
                </mxCell>
            </root>
        </mxGraphModel>
    </diagram>
</mxfile>